<?xml version="1.0" encoding="utf-8"?>
<!-- Generator: Adobe Illustrator 19.1.0, SVG Export Plug-In . SVG Version: 6.00 Build 0)  -->
<svg version="1.1" id="Calque_1" xmlns="http://www.w3.org/2000/svg" xmlns:xlink="http://www.w3.org/1999/xlink" x="0px" y="0px"
	 viewBox="-199 188 100 100" style="enable-background:new -199 188 100 100;" xml:space="preserve">
<style type="text/css">
	.st0{display:none;}
	.st1{display:inline;}
</style>
<g class="st0">
	<path class="st1" d="M-149,220c9.9,0,18,8.1,18,18c0,9.9-8.1,18-18,18c-9.9,0-18-8.1-18-18C-167,228.1-158.9,220-149,220 M-149,202
		c-19.9,0-36,16.1-36,36s16.1,36,36,36c19.9,0,36-16.1,36-36S-129.1,202-149,202L-149,202z"/>
</g>
<g class="st0">
	<path class="st1" d="M-148.5,210c-19.9,0-36,11-36,24.7c0,6.5,3.7,12.3,9.6,16.7l-4,14.6l20.5-7.6c3.1,0.6,6.4,1,9.9,1
		c19.9,0,36-11.1,36-24.7C-112.6,221.1-128.7,210-148.5,210z"/>
</g>
<g class="st0">
	
		<rect x="-183.8" y="220.1" transform="matrix(0.7071 0.7071 -0.7071 0.7071 121.7817 176.2556)" class="st1" width="63.8" height="30"/>
	<polygon class="st1" points="-134.2,274 -134.2,274 -113,274 -113,252.8 -113,252.8 	"/>
</g>
<path d="M-108.5,188.1h-35.7c-2.5,0-4.9,1-6.7,2.8l-45.2,45.2c-3.7,3.7-3.7,9.7,0,13.5l35.6,35.6c1.9,1.9,4.3,2.8,6.7,2.8
	c2.4,0,4.9-0.9,6.7-2.8l45.3-45.2c1.8-1.8,2.8-4.2,2.8-6.7v-35.6C-99,192.3-103.3,188.1-108.5,188.1z M-127.7,228.8
	c-6.6,0-12-5.4-12-12c0-6.6,5.4-12,12-12c6.6,0,12,5.4,12,12C-115.7,223.4-121.1,228.8-127.7,228.8z"/>
</svg>
